<svg xmlns="http://www.w3.org/2000/svg" version="1.1" xmlns:xlink="http://www.w3.org/1999/xlink" xmlns:svgjs="http://svgjs.dev/svgjs" width="1000" height="1000"><g clip-path="url(#SvgjsClipPath1196)"><rect width="1000" height="1000" fill="#454545"></rect><g transform="matrix(0.6481481481481481,0,0,0.6481481481481481,150,150)"><svg xmlns="http://www.w3.org/2000/svg" version="1.1" xmlns:xlink="http://www.w3.org/1999/xlink" xmlns:svgjs="http://svgjs.dev/svgjs" width="1080" height="1080"><svg xmlns="http://www.w3.org/2000/svg" xmlns:xlink="http://www.w3.org/1999/xlink" version="1.1" width="1080" height="1080" viewBox="0 0 1080 1080" xml:space="preserve">
<desc>Created with Fabric.js 5.2.4</desc>
<defs>
<clipPath id="SvgjsClipPath1196"><rect width="1000" height="1000" x="0" y="0" rx="350" ry="350"></rect></clipPath></defs>
<g transform="matrix(1 0 0 1 540 540)" id="3759edbd-04b8-4c44-ae5b-3c402af1e4bd">
<rect style="stroke: none; stroke-width: 1; stroke-dasharray: none; stroke-linecap: butt; stroke-dashoffset: 0; stroke-linejoin: miter; stroke-miterlimit: 4; fill: rgb(255,255,255); fill-rule: nonzero; opacity: 1; visibility: hidden;" vector-effect="non-scaling-stroke" x="-540" y="-540" rx="0" ry="0" width="1080" height="1080"></rect>
</g>
<g transform="matrix(1 0 0 1 540 540)" id="b9a1bb75-108d-4d12-bba6-081cb8215cb9">
</g>
<g transform="matrix(1.95 0 0 1.95 558.12 587.71)">
<rect style="stroke: none; stroke-width: 1; stroke-dasharray: none; stroke-linecap: butt; stroke-dashoffset: 0; stroke-linejoin: miter; stroke-miterlimit: 4; fill: rgb(255,255,255); fill-rule: nonzero; opacity: 1; visibility: hidden;" vector-effect="non-scaling-stroke" x="-540" y="-540" rx="0" ry="0" width="1080" height="1080"></rect>
</g>
<g transform="matrix(20.25 0 0 20.25 567.67 540)">
<path style="stroke: none; stroke-width: 1; stroke-dasharray: none; stroke-linecap: butt; stroke-dashoffset: 0; stroke-linejoin: miter; stroke-miterlimit: 4; fill: rgb(127,247,186); fill-rule: nonzero; opacity: 1;" vector-effect="non-scaling-stroke" transform=" translate(-20.32, -25.16)" d="M 21.558594 1.277344 C 21.820312 1.273438 21.820312 1.273438 22.089844 1.273438 C 26 1.269531 29.890625 1.796875 32.832031 4.605469 C 35.609375 7.394531 36.90625 10.847656 36.914062 14.738281 C 36.875 17.652344 35.871094 20.0625 33.847656 22.164062 C 32.878906 23.070312 31.730469 23.742188 30.613281 24.4375 C 30.839844 24.539062 30.839844 24.539062 31.074219 24.644531 C 34.867188 26.355469 37.132812 28.507812 38.625 32.421875 C 39.652344 35.828125 39.304688 39.355469 37.695312 42.5 C 36.210938 45.261719 33.730469 47.273438 30.769531 48.261719 C 28.425781 48.898438 26.078125 49.0625 23.65625 49.046875 C 23.457031 49.046875 23.253906 49.046875 23.046875 49.046875 C 22.417969 49.042969 21.785156 49.039062 21.15625 49.035156 C 20.960938 49.035156 20.765625 49.03125 20.5625 49.03125 C 19.171875 49.023438 17.78125 49.011719 16.390625 49 C 16.003906 48.996094 15.617188 48.992188 15.230469 48.992188 C 13.824219 48.980469 12.414062 48.96875 11.007812 48.953125 C 7.851562 48.929688 4.695312 48.902344 1.441406 48.875 C 1.441406 40.066406 1.441406 31.261719 1.441406 22.1875 C 11.5 22.125 11.5 22.125 14.667969 22.109375 C 15.609375 22.101562 15.609375 22.101562 16.550781 22.097656 C 16.96875 22.09375 17.386719 22.089844 17.804688 22.089844 C 18.441406 22.085938 19.074219 22.082031 19.710938 22.078125 C 19.894531 22.078125 20.078125 22.078125 20.265625 22.074219 C 22.527344 22.050781 24.828125 21.707031 26.636719 20.234375 C 28.03125 18.804688 28.566406 17.140625 28.589844 15.191406 C 28.570312 13.40625 28.210938 12.074219 26.925781 10.773438 C 25.523438 9.621094 23.792969 9.304688 22.027344 9.292969 C 21.894531 9.289062 21.757812 9.289062 21.617188 9.285156 C 21.167969 9.28125 20.71875 9.277344 20.269531 9.273438 C 19.960938 9.269531 19.648438 9.265625 19.335938 9.265625 C 18.519531 9.253906 17.699219 9.246094 16.882812 9.238281 C 16.046875 9.230469 15.210938 9.222656 14.375 9.214844 C 12.734375 9.195312 11.09375 9.179688 9.457031 9.164062 C 9.457031 9.328125 9.457031 9.496094 9.457031 9.667969 C 9.460938 10.296875 9.464844 10.925781 9.464844 11.554688 C 9.464844 11.824219 9.464844 12.09375 9.46875 12.363281 C 9.46875 12.757812 9.472656 13.152344 9.472656 13.542969 C 9.472656 13.660156 9.472656 13.777344 9.472656 13.894531 C 9.472656 15.21875 9.375 16.515625 9.296875 17.84375 C 6.703125 17.84375 4.113281 17.84375 1.441406 17.84375 C 1.441406 12.433594 1.441406 7.023438 1.441406 1.445312 C 5.707031 1.40625 5.707031 1.40625 7.554688 1.390625 C 8.804688 1.378906 10.054688 1.367188 11.304688 1.355469 C 12.316406 1.34375 13.324219 1.335938 14.335938 1.328125 C 14.71875 1.324219 15.097656 1.320312 15.480469 1.316406 C 17.507812 1.296875 19.53125 1.28125 21.558594 1.277344 Z M 9.457031 28.136719 C 9.253906 30.273438 9.269531 32.410156 9.273438 34.554688 C 9.277344 35.179688 9.273438 35.804688 9.273438 36.429688 C 9.273438 36.832031 9.273438 37.230469 9.273438 37.632812 C 9.273438 37.816406 9.273438 38.003906 9.273438 38.191406 C 9.277344 39.246094 9.328125 40.273438 9.457031 41.316406 C 12.878906 41.445312 16.304688 41.5 19.730469 41.507812 C 20.152344 41.507812 20.570312 41.511719 20.992188 41.511719 C 21.59375 41.515625 22.195312 41.515625 22.792969 41.515625 C 22.972656 41.515625 23.152344 41.519531 23.335938 41.519531 C 25.527344 41.511719 27.539062 41.253906 29.195312 39.707031 C 30.582031 38.214844 31.128906 36.59375 31.09375 34.566406 C 30.863281 32.625 30.050781 30.980469 28.527344 29.742188 C 26.605469 28.328125 24.40625 27.945312 22.078125 27.953125 C 21.953125 27.953125 21.828125 27.953125 21.703125 27.953125 C 21.300781 27.953125 20.898438 27.953125 20.492188 27.953125 C 20.210938 27.953125 19.929688 27.953125 19.644531 27.953125 C 19.054688 27.953125 18.464844 27.953125 17.875 27.953125 C 17.121094 27.953125 16.367188 27.953125 15.609375 27.953125 C 15.027344 27.953125 14.445312 27.953125 13.863281 27.953125 C 13.582031 27.953125 13.304688 27.953125 13.027344 27.953125 C 12.636719 27.953125 12.25 27.953125 11.859375 27.953125 C 11.746094 27.953125 11.632812 27.953125 11.515625 27.953125 C 10.8125 27.957031 10.148438 28.019531 9.457031 28.136719 Z M 9.457031 28.136719" stroke-linecap="round"></path>
</g>
</svg></svg></g></g></svg>