<?xml version="1.0" standalone="no"?>
<!DOCTYPE svg PUBLIC "-//W3C//DTD SVG 20010904//EN"
 "http://www.w3.org/TR/2001/REC-SVG-20010904/DTD/svg10.dtd">
<svg version="1.0" xmlns="http://www.w3.org/2000/svg"
 width="640.000000pt" height="640.000000pt" viewBox="0 0 640.000000 640.000000"
 preserveAspectRatio="xMidYMid meet">
<metadata>
Created by potrace 1.16, written by Peter Selinger 2001-2019
</metadata>
<g transform="translate(0.000000,640.000000) scale(0.100000,-0.100000)"
fill="#000000" stroke="none">
<path d="M0 3200 l0 -3200 3200 0 3200 0 0 3200 0 3200 -3200 0 -3200 0 0
-3200z m1878 276 c113 -63 170 -210 128 -329 -16 -45 -37 -69 -88 -107 l-37
-27 40 -17 c107 -48 169 -182 139 -305 -17 -72 -67 -133 -137 -168 l-58 -28
-302 -3 -303 -3 0 285 0 286 218 0 c119 0 234 5 254 10 116 33 154 171 67 244
-30 26 -33 26 -200 26 l-169 0 0 -90 0 -90 -85 0 -85 0 0 176 0 176 283 -4
282 -3 53 -29z m2330 -478 l2 -508 -80 0 -80 0 0 510 0 511 78 -3 77 -3 3
-507z m631 494 c8 -14 105 -254 367 -901 19 -46 34 -87 34 -92 0 -5 -38 -9
-84 -9 l-83 0 -46 108 c-25 59 -52 124 -61 145 l-15 37 -174 0 -175 0 -58
-145 -57 -145 -84 0 c-45 0 -83 3 -83 7 0 6 116 312 140 371 10 22 11 22 225
22 118 0 215 3 215 6 0 19 -125 313 -130 307 -4 -4 -26 -55 -48 -113 l-41
-105 -85 -3 c-49 -2 -86 1 -86 7 0 9 39 111 135 356 26 66 51 130 56 143 7 19
16 22 68 22 47 0 62 -4 70 -18z m-1942 -134 c31 -29 30 -72 -3 -105 -21 -21
-32 -24 -61 -20 -47 8 -73 33 -73 70 0 68 86 103 137 55z m-497 -253 c0 -14 2
-25 5 -25 2 0 21 11 41 25 30 20 49 25 100 25 l64 0 0 -70 0 -70 -51 0 c-64 0
-104 -23 -132 -75 -19 -36 -22 -59 -25 -233 l-4 -193 -76 3 -77 3 -3 305 c-1
168 0 310 3 317 3 9 28 13 80 13 73 0 75 -1 75 -25z m524 -12 c9 -57 7 -576
-3 -591 -5 -9 -29 -12 -82 -10 l-74 3 -3 305 c-1 168 0 310 3 317 3 9 28 13
78 13 l74 0 7 -37z m363 -53 c37 -49 71 -90 75 -90 3 0 38 41 77 90 l71 90 90
0 c50 0 90 -3 90 -6 0 -3 -48 -67 -107 -142 -59 -75 -111 -143 -116 -150 -7
-8 26 -58 109 -169 66 -87 121 -161 122 -165 2 -5 -37 -8 -86 -8 l-90 0 -73
99 c-41 55 -77 100 -81 100 -4 1 -42 -44 -85 -99 l-78 -100 -88 0 c-68 0 -86
3 -81 13 4 6 56 78 116 158 59 81 108 152 108 159 0 6 -49 77 -110 156 -60 79
-110 146 -110 149 0 3 40 5 90 5 l90 0 67 -90z m633 -200 l0 -60 -125 0 -125
0 0 53 c0 30 3 57 7 60 3 4 60 7 125 7 l118 0 0 -60z"/>
<path d="M1430 2794 l0 -145 196 3 196 3 33 37 c47 51 54 95 24 155 -18 36
-35 54 -69 71 -41 20 -58 22 -212 22 l-168 0 0 -146z"/>
</g>
</svg>
