<?xml version="1.0" encoding="UTF-8"?>
<svg xmlns="http://www.w3.org/2000/svg" xmlns:xlink="http://www.w3.org/1999/xlink" width="189px" height="50px" viewBox="0 0 188 50" version="1.1">
<g id="surface1">
<path style=" stroke:none;fill-rule:nonzero;fill:rgb(50.196081%,97.647059%,73.725492%);fill-opacity:1;" d="M 21.558594 1.277344 C 21.820312 1.273438 21.820312 1.273438 22.089844 1.273438 C 26 1.269531 29.890625 1.796875 32.832031 4.605469 C 35.609375 7.394531 36.90625 10.847656 36.914062 14.738281 C 36.875 17.652344 35.871094 20.0625 33.847656 22.164062 C 32.878906 23.070312 31.730469 23.742188 30.613281 24.4375 C 30.839844 24.539062 30.839844 24.539062 31.074219 24.644531 C 34.867188 26.355469 37.132812 28.507812 38.625 32.421875 C 39.652344 35.828125 39.304688 39.355469 37.695312 42.5 C 36.210938 45.261719 33.730469 47.273438 30.769531 48.261719 C 28.425781 48.898438 26.078125 49.0625 23.65625 49.046875 C 23.457031 49.046875 23.253906 49.046875 23.046875 49.046875 C 22.417969 49.042969 21.785156 49.039062 21.15625 49.035156 C 20.960938 49.035156 20.765625 49.03125 20.5625 49.03125 C 19.171875 49.023438 17.78125 49.011719 16.390625 49 C 16.003906 48.996094 15.617188 48.992188 15.230469 48.992188 C 13.824219 48.980469 12.414062 48.96875 11.007812 48.953125 C 7.851562 48.929688 4.695312 48.902344 1.441406 48.875 C 1.441406 40.066406 1.441406 31.261719 1.441406 22.1875 C 11.5 22.125 11.5 22.125 14.667969 22.109375 C 15.609375 22.101562 15.609375 22.101562 16.550781 22.097656 C 16.96875 22.09375 17.386719 22.089844 17.804688 22.089844 C 18.441406 22.085938 19.074219 22.082031 19.710938 22.078125 C 19.894531 22.078125 20.078125 22.078125 20.265625 22.074219 C 22.527344 22.050781 24.828125 21.707031 26.636719 20.234375 C 28.03125 18.804688 28.566406 17.140625 28.589844 15.191406 C 28.570312 13.40625 28.210938 12.074219 26.925781 10.773438 C 25.523438 9.621094 23.792969 9.304688 22.027344 9.292969 C 21.894531 9.289062 21.757812 9.289062 21.617188 9.285156 C 21.167969 9.28125 20.71875 9.277344 20.269531 9.273438 C 19.960938 9.269531 19.648438 9.265625 19.335938 9.265625 C 18.519531 9.253906 17.699219 9.246094 16.882812 9.238281 C 16.046875 9.230469 15.210938 9.222656 14.375 9.214844 C 12.734375 9.195312 11.09375 9.179688 9.457031 9.164062 C 9.457031 9.328125 9.457031 9.496094 9.457031 9.667969 C 9.460938 10.296875 9.464844 10.925781 9.464844 11.554688 C 9.464844 11.824219 9.464844 12.09375 9.46875 12.363281 C 9.46875 12.757812 9.472656 13.152344 9.472656 13.542969 C 9.472656 13.660156 9.472656 13.777344 9.472656 13.894531 C 9.472656 15.21875 9.375 16.515625 9.296875 17.84375 C 6.703125 17.84375 4.113281 17.84375 1.441406 17.84375 C 1.441406 12.433594 1.441406 7.023438 1.441406 1.445312 C 5.707031 1.40625 5.707031 1.40625 7.554688 1.390625 C 8.804688 1.378906 10.054688 1.367188 11.304688 1.355469 C 12.316406 1.34375 13.324219 1.335938 14.335938 1.328125 C 14.71875 1.324219 15.097656 1.320312 15.480469 1.316406 C 17.507812 1.296875 19.53125 1.28125 21.558594 1.277344 Z M 9.457031 28.136719 C 9.253906 30.273438 9.269531 32.410156 9.273438 34.554688 C 9.277344 35.179688 9.273438 35.804688 9.273438 36.429688 C 9.273438 36.832031 9.273438 37.230469 9.273438 37.632812 C 9.273438 37.816406 9.273438 38.003906 9.273438 38.191406 C 9.277344 39.246094 9.328125 40.273438 9.457031 41.316406 C 12.878906 41.445312 16.304688 41.5 19.730469 41.507812 C 20.152344 41.507812 20.570312 41.511719 20.992188 41.511719 C 21.59375 41.515625 22.195312 41.515625 22.792969 41.515625 C 22.972656 41.515625 23.152344 41.519531 23.335938 41.519531 C 25.527344 41.511719 27.539062 41.253906 29.195312 39.707031 C 30.582031 38.214844 31.128906 36.59375 31.09375 34.566406 C 30.863281 32.625 30.050781 30.980469 28.527344 29.742188 C 26.605469 28.328125 24.40625 27.945312 22.078125 27.953125 C 21.953125 27.953125 21.828125 27.953125 21.703125 27.953125 C 21.300781 27.953125 20.898438 27.953125 20.492188 27.953125 C 20.210938 27.953125 19.929688 27.953125 19.644531 27.953125 C 19.054688 27.953125 18.464844 27.953125 17.875 27.953125 C 17.121094 27.953125 16.367188 27.953125 15.609375 27.953125 C 15.027344 27.953125 14.445312 27.953125 13.863281 27.953125 C 13.582031 27.953125 13.304688 27.953125 13.027344 27.953125 C 12.636719 27.953125 12.25 27.953125 11.859375 27.953125 C 11.746094 27.953125 11.632812 27.953125 11.515625 27.953125 C 10.8125 27.957031 10.148438 28.019531 9.457031 28.136719 Z M 9.457031 28.136719 "/>
<path style=" stroke:none;fill-rule:nonzero;fill:rgb(50.196081%,98.039216%,73.725492%);fill-opacity:1;" d="M 161.394531 1.445312 C 163.40625 1.445312 165.414062 1.445312 167.484375 1.445312 C 167.984375 2.648438 168.480469 3.851562 168.96875 5.054688 C 169.097656 5.375 169.230469 5.691406 169.359375 6.011719 C 169.425781 6.175781 169.492188 6.339844 169.558594 6.511719 C 170.582031 9.023438 171.605469 11.53125 172.644531 14.035156 C 173.859375 16.957031 175.042969 19.886719 176.21875 22.820312 C 176.261719 22.925781 176.304688 23.035156 176.351562 23.148438 C 176.820312 24.316406 177.289062 25.484375 177.757812 26.652344 C 178.386719 28.21875 179.015625 29.785156 179.644531 31.351562 C 179.699219 31.484375 179.753906 31.617188 179.808594 31.753906 C 180.746094 34.082031 181.703125 36.402344 182.660156 38.726562 C 183.632812 41.078125 184.59375 43.429688 185.546875 45.789062 C 185.605469 45.9375 185.664062 46.085938 185.726562 46.238281 C 185.894531 46.652344 186.0625 47.066406 186.230469 47.480469 C 186.277344 47.605469 186.328125 47.726562 186.378906 47.855469 C 186.71875 48.695312 186.71875 48.695312 186.71875 48.875 C 183.941406 49.078125 181.164062 49.050781 178.382812 49.035156 C 177.929688 47.949219 177.484375 46.863281 177.054688 45.769531 C 176.265625 43.75 175.414062 41.761719 174.535156 39.78125 C 174.492188 39.675781 174.445312 39.570312 174.398438 39.464844 C 174.273438 39.183594 174.148438 38.90625 174.027344 38.625 C 173.589844 37.601562 173.1875 36.5625 172.773438 35.53125 C 167.484375 35.53125 162.195312 35.53125 156.746094 35.53125 C 155.125 39.628906 155.125 39.628906 153.503906 43.726562 C 153.191406 44.519531 153.191406 44.519531 153.042969 44.890625 C 152.941406 45.148438 152.839844 45.410156 152.738281 45.667969 C 152.582031 46.0625 152.425781 46.453125 152.269531 46.847656 C 152.203125 47.019531 152.203125 47.019531 152.132812 47.195312 C 152.015625 47.488281 151.898438 47.78125 151.777344 48.070312 C 151.726562 48.199219 151.675781 48.324219 151.625 48.457031 C 151.457031 48.714844 151.457031 48.714844 150.878906 48.914062 C 150.207031 49.050781 149.554688 49.078125 148.867188 49.074219 C 148.75 49.074219 148.628906 49.074219 148.503906 49.070312 C 148.253906 49.070312 148.003906 49.070312 147.753906 49.070312 C 147.371094 49.066406 146.992188 49.066406 146.609375 49.066406 C 146.363281 49.0625 146.117188 49.0625 145.875 49.0625 C 145.761719 49.0625 145.648438 49.0625 145.535156 49.0625 C 144.769531 49.054688 144.039062 48.980469 143.285156 48.875 C 143.390625 48.203125 143.609375 47.636719 143.878906 47.015625 C 143.972656 46.796875 144.066406 46.578125 144.160156 46.359375 C 144.207031 46.242188 144.257812 46.125 144.308594 46.003906 C 145.777344 42.570312 147.0625 39.070312 148.351562 35.5625 C 148.796875 34.347656 149.246094 33.128906 149.695312 31.914062 C 149.757812 31.75 149.820312 31.582031 149.882812 31.410156 C 149.941406 31.253906 149.996094 31.101562 150.054688 30.945312 C 150.105469 30.808594 150.15625 30.675781 150.207031 30.535156 C 150.335938 30.226562 150.335938 30.226562 150.496094 30.0625 C 150.753906 30.050781 151.015625 30.042969 151.277344 30.046875 C 151.445312 30.042969 151.613281 30.042969 151.789062 30.042969 C 152.066406 30.046875 152.066406 30.046875 152.351562 30.046875 C 152.550781 30.046875 152.746094 30.046875 152.945312 30.046875 C 153.484375 30.046875 154.019531 30.046875 154.558594 30.046875 C 155.117188 30.050781 155.679688 30.050781 156.242188 30.050781 C 157.304688 30.050781 158.367188 30.050781 159.429688 30.050781 C 160.640625 30.054688 161.851562 30.054688 163.0625 30.054688 C 165.550781 30.058594 168.039062 30.0625 170.53125 30.0625 C 170.464844 29.910156 170.398438 29.753906 170.332031 29.589844 C 167.933594 23.84375 167.933594 23.84375 166.816406 20.992188 C 166.648438 20.5625 166.476562 20.136719 166.308594 19.707031 C 165.753906 18.296875 165.210938 16.886719 164.761719 15.433594 C 164.378906 15.816406 164.261719 16.140625 164.0625 16.644531 C 163.984375 16.832031 163.910156 17.019531 163.832031 17.214844 C 163.75 17.421875 163.671875 17.628906 163.589844 17.835938 C 163.546875 17.941406 163.503906 18.042969 163.464844 18.152344 C 162.40625 20.820312 161.421875 23.511719 160.433594 26.207031 C 157.628906 26.207031 154.828125 26.207031 151.9375 26.207031 C 152.476562 24.585938 152.476562 24.585938 152.78125 23.84375 C 152.847656 23.671875 152.917969 23.503906 152.992188 23.324219 C 153.066406 23.136719 153.140625 22.953125 153.222656 22.757812 C 154.136719 20.492188 155.003906 18.207031 155.867188 15.917969 C 156.765625 13.53125 157.675781 11.152344 158.632812 8.785156 C 159.605469 6.359375 160.492188 3.902344 161.394531 1.445312 Z M 161.394531 1.445312 "/>
<path style=" stroke:none;fill-rule:nonzero;fill:rgb(50.588238%,97.647059%,73.725492%);fill-opacity:1;" d="M 83.824219 19.132812 C 85.050781 19.085938 86.28125 19.054688 87.507812 19.035156 C 87.925781 19.027344 88.34375 19.015625 88.761719 19 C 92.425781 18.867188 92.425781 18.867188 93.207031 19.492188 C 93.578125 19.945312 93.828125 20.371094 94.082031 20.898438 C 94.238281 21.117188 94.398438 21.328125 94.570312 21.535156 C 94.714844 21.726562 94.859375 21.921875 95 22.117188 C 95.121094 22.277344 95.121094 22.277344 95.242188 22.4375 C 95.871094 23.289062 96.496094 24.144531 97.117188 25 C 97.199219 25.117188 97.285156 25.234375 97.375 25.355469 C 97.910156 26.101562 98.410156 26.863281 98.886719 27.652344 C 99.515625 27.441406 99.761719 27.046875 100.152344 26.539062 C 100.226562 26.4375 100.304688 26.339844 100.382812 26.234375 C 101.082031 25.324219 101.746094 24.394531 102.414062 23.460938 C 103.132812 22.453125 103.878906 21.464844 104.636719 20.480469 C 104.71875 20.375 104.800781 20.265625 104.886719 20.15625 C 104.957031 20.0625 105.03125 19.96875 105.105469 19.875 C 105.285156 19.632812 105.453125 19.382812 105.621094 19.132812 C 106.003906 19.074219 106.003906 19.074219 106.496094 19.078125 C 106.675781 19.078125 106.859375 19.078125 107.050781 19.078125 C 107.347656 19.082031 107.347656 19.082031 107.648438 19.085938 C 107.851562 19.085938 108.054688 19.085938 108.261719 19.085938 C 108.800781 19.089844 109.339844 19.09375 109.875 19.097656 C 110.425781 19.105469 110.972656 19.105469 111.523438 19.109375 C 112.601562 19.113281 113.679688 19.121094 114.753906 19.132812 C 114.519531 19.625 114.277344 19.972656 113.902344 20.367188 C 113.273438 21.0625 112.707031 21.792969 112.140625 22.539062 C 112.050781 22.65625 111.960938 22.773438 111.871094 22.898438 C 111.6875 23.136719 111.507812 23.375 111.328125 23.613281 C 110.949219 24.113281 110.5625 24.609375 110.175781 25.101562 C 110.070312 25.238281 110.070312 25.238281 109.960938 25.375 C 109.511719 25.945312 109.058594 26.515625 108.605469 27.082031 C 108.523438 27.179688 108.445312 27.28125 108.363281 27.382812 C 108.285156 27.480469 108.207031 27.578125 108.125 27.679688 C 107.511719 28.449219 106.914062 29.230469 106.320312 30.015625 C 105.476562 31.128906 104.601562 32.214844 103.695312 33.28125 C 104.339844 34.359375 105.050781 35.371094 105.832031 36.351562 C 107.796875 38.820312 109.667969 41.359375 111.550781 43.890625 C 111.652344 44.027344 111.75 44.160156 111.855469 44.300781 C 114.007812 47.1875 114.007812 47.1875 114.914062 48.714844 C 114.65625 48.976562 114.359375 48.910156 113.996094 48.925781 C 113.835938 48.933594 113.675781 48.941406 113.507812 48.945312 C 112.761719 48.96875 112.015625 48.988281 111.269531 49 C 110.878906 49.011719 110.484375 49.023438 110.09375 49.042969 C 106.65625 49.191406 106.65625 49.191406 105.832031 48.445312 C 105.398438 47.9375 105.113281 47.378906 104.820312 46.785156 C 104.652344 46.550781 104.476562 46.324219 104.296875 46.101562 C 103.875 45.546875 103.453125 44.996094 103.03125 44.441406 C 102.824219 44.167969 102.613281 43.890625 102.40625 43.617188 C 102.058594 43.167969 101.714844 42.714844 101.371094 42.261719 C 101.210938 42.050781 101.210938 42.050781 101.046875 41.835938 C 100.472656 41.082031 99.914062 40.324219 99.367188 39.550781 C 98.691406 40.203125 98.089844 40.910156 97.496094 41.640625 C 97.398438 41.761719 97.296875 41.882812 97.195312 42.007812 C 95.949219 43.539062 94.765625 45.105469 93.609375 46.703125 C 93.519531 46.828125 93.429688 46.949219 93.339844 47.078125 C 93.253906 47.195312 93.171875 47.3125 93.085938 47.433594 C 93.007812 47.535156 92.933594 47.640625 92.859375 47.746094 C 92.621094 48.074219 92.621094 48.074219 92.4375 48.488281 C 92.15625 48.875 92.15625 48.875 91.769531 48.972656 C 91.617188 48.96875 91.464844 48.96875 91.308594 48.964844 C 91.132812 48.964844 90.960938 48.964844 90.78125 48.964844 C 90.597656 48.960938 90.410156 48.957031 90.214844 48.953125 C 90.023438 48.953125 89.832031 48.949219 89.636719 48.949219 C 89.023438 48.945312 88.410156 48.933594 87.800781 48.925781 C 87.382812 48.921875 86.96875 48.917969 86.554688 48.914062 C 85.539062 48.90625 84.519531 48.890625 83.503906 48.875 C 83.789062 48.390625 84.078125 47.921875 84.40625 47.464844 C 84.488281 47.355469 84.570312 47.242188 84.652344 47.125 C 84.738281 47.007812 84.824219 46.886719 84.914062 46.765625 C 85.007812 46.636719 85.097656 46.511719 85.191406 46.378906 C 86.128906 45.085938 87.078125 43.796875 88.027344 42.507812 C 88.496094 41.871094 88.964844 41.230469 89.433594 40.59375 C 90 39.824219 90.566406 39.050781 91.132812 38.28125 C 92.277344 36.722656 93.421875 35.164062 94.5625 33.601562 C 93.898438 32.707031 93.222656 31.824219 92.539062 30.949219 C 91.015625 28.988281 89.539062 26.996094 88.070312 24.992188 C 87.226562 23.835938 86.359375 22.699219 85.492188 21.5625 C 83.824219 19.375 83.824219 19.375 83.824219 19.132812 Z M 83.824219 19.132812 "/>
<path style=" stroke:none;fill-rule:nonzero;fill:rgb(49.803922%,96.862745%,72.941178%);fill-opacity:1;" d="M 130.941406 1.445312 C 133.429688 1.445312 135.914062 1.445312 138.476562 1.445312 C 138.476562 17.097656 138.476562 32.75 138.476562 48.875 C 135.988281 48.875 133.503906 48.875 130.941406 48.875 C 130.941406 33.222656 130.941406 17.574219 130.941406 1.445312 Z M 130.941406 1.445312 "/>
<path style=" stroke:none;fill-rule:nonzero;fill:rgb(50.196081%,97.647059%,73.725492%);fill-opacity:1;" d="M 60.457031 18.933594 C 60.613281 18.933594 60.613281 18.933594 60.773438 18.933594 C 60.992188 18.933594 61.210938 18.9375 61.429688 18.9375 C 61.769531 18.941406 62.105469 18.941406 62.441406 18.941406 C 64.085938 18.949219 64.085938 18.949219 64.269531 19.132812 C 64.285156 19.605469 64.289062 20.078125 64.285156 20.554688 C 64.285156 20.695312 64.285156 20.839844 64.285156 20.984375 C 64.285156 21.441406 64.28125 21.898438 64.28125 22.355469 C 64.277344 22.667969 64.277344 22.976562 64.277344 23.285156 C 64.277344 24.042969 64.273438 24.804688 64.269531 25.5625 C 63.960938 25.558594 63.960938 25.558594 63.644531 25.558594 C 63.371094 25.554688 63.097656 25.554688 62.820312 25.550781 C 62.6875 25.550781 62.550781 25.550781 62.414062 25.546875 C 60.457031 25.539062 58.757812 25.878906 57.21875 27.171875 C 55.148438 29.257812 54.796875 32.074219 54.78125 34.875 C 54.777344 35.027344 54.777344 35.179688 54.777344 35.335938 C 54.769531 35.835938 54.765625 36.335938 54.761719 36.832031 C 54.757812 37.179688 54.757812 37.527344 54.753906 37.875 C 54.742188 38.785156 54.734375 39.695312 54.726562 40.609375 C 54.71875 41.703125 54.707031 42.796875 54.699219 43.894531 C 54.683594 45.554688 54.667969 47.214844 54.652344 48.875 C 52.167969 48.875 49.679688 48.875 47.121094 48.875 C 47.121094 39.113281 47.121094 29.351562 47.121094 19.292969 C 47.972656 19.1875 48.722656 19.109375 49.570312 19.109375 C 49.726562 19.109375 49.726562 19.109375 49.890625 19.109375 C 50.109375 19.109375 50.332031 19.109375 50.550781 19.109375 C 50.886719 19.113281 51.21875 19.109375 51.554688 19.109375 C 52.597656 19.109375 53.621094 19.125 54.652344 19.292969 C 54.730469 20.40625 54.730469 20.40625 54.8125 21.542969 C 55.011719 21.351562 55.210938 21.160156 55.414062 20.960938 C 56.832031 19.695312 58.550781 18.925781 60.457031 18.933594 Z M 60.457031 18.933594 "/>
<path style=" stroke:none;fill-rule:nonzero;fill:rgb(49.803922%,96.862745%,73.333335%);fill-opacity:1;" d="M 77.082031 19.203125 C 77.398438 19.21875 77.714844 19.234375 78.03125 19.25 C 78.441406 19.273438 78.441406 19.273438 78.855469 19.292969 C 78.980469 23.445312 79.042969 27.597656 79.035156 31.753906 C 79.035156 32.191406 79.035156 32.632812 79.035156 33.070312 C 79.03125 38.339844 78.96875 43.605469 78.855469 48.875 C 76.367188 48.875 73.882812 48.875 71.320312 48.875 C 71.136719 48.3125 71.140625 47.8125 71.140625 47.230469 C 71.140625 47.109375 71.140625 46.992188 71.140625 46.867188 C 71.140625 46.46875 71.140625 46.066406 71.144531 45.667969 C 71.144531 45.378906 71.144531 45.09375 71.144531 44.804688 C 71.144531 44.027344 71.144531 43.246094 71.144531 42.46875 C 71.144531 41.652344 71.144531 40.839844 71.144531 40.023438 C 71.148438 38.480469 71.148438 36.941406 71.148438 35.398438 C 71.152344 33.640625 71.152344 31.886719 71.152344 30.128906 C 71.15625 26.515625 71.15625 22.90625 71.160156 19.292969 C 71.75 19.265625 72.339844 19.238281 72.925781 19.210938 C 73.175781 19.199219 73.175781 19.199219 73.429688 19.1875 C 74.652344 19.132812 75.855469 19.132812 77.082031 19.203125 Z M 77.082031 19.203125 "/>
<path style=" stroke:none;fill-rule:nonzero;fill:rgb(49.803922%,96.078432%,72.549021%);fill-opacity:1;" d="M 119.351562 29.722656 C 119.765625 29.722656 120.179688 29.722656 120.59375 29.722656 C 120.867188 29.722656 121.136719 29.722656 121.410156 29.722656 C 121.527344 29.722656 121.648438 29.722656 121.773438 29.71875 C 122.917969 29.726562 124.023438 29.820312 125.171875 29.902344 C 125.171875 31.8125 125.171875 33.722656 125.171875 35.691406 C 122.300781 35.699219 122.300781 35.699219 121.078125 35.699219 C 120.246094 35.699219 119.410156 35.703125 118.574219 35.703125 C 117.902344 35.707031 117.230469 35.707031 116.558594 35.707031 C 116.300781 35.707031 116.042969 35.707031 115.789062 35.707031 C 115.429688 35.710938 115.070312 35.710938 114.710938 35.710938 C 114.507812 35.710938 114.300781 35.710938 114.089844 35.710938 C 113.632812 35.691406 113.632812 35.691406 113.472656 35.53125 C 113.457031 35.195312 113.453125 34.863281 113.453125 34.527344 C 113.453125 34.324219 113.453125 34.117188 113.453125 33.90625 C 113.453125 33.796875 113.453125 33.691406 113.453125 33.578125 C 113.453125 33.253906 113.453125 32.929688 113.453125 32.601562 C 113.453125 32.394531 113.453125 32.1875 113.453125 31.976562 C 113.453125 31.789062 113.453125 31.597656 113.453125 31.402344 C 113.472656 30.890625 113.539062 30.40625 113.632812 29.902344 C 115.542969 29.777344 117.441406 29.71875 119.351562 29.722656 Z M 119.351562 29.722656 "/>
<path style=" stroke:none;fill-rule:nonzero;fill:rgb(50.196081%,96.862745%,73.333335%);fill-opacity:1;" d="M 76.867188 7.644531 C 77.746094 8.179688 78.484375 8.972656 78.785156 9.976562 C 78.917969 11.195312 78.730469 12.148438 78.054688 13.183594 C 77.304688 13.976562 76.097656 14.492188 75.007812 14.539062 C 73.835938 14.464844 72.738281 14.132812 71.878906 13.3125 C 71.308594 12.617188 70.972656 11.824219 70.929688 10.921875 C 71.0625 9.742188 71.421875 8.882812 72.28125 8.039062 C 73.761719 7.128906 75.253906 6.921875 76.867188 7.644531 Z M 76.867188 7.644531 "/>
</g>
</svg>